Coordinates
version=1
nRows=34
nColumns=19
inDegrees=yes

Units are S.I. units (second, meters, Newtons, ...)
If the header above contains a line with 'inDegrees', this indicates whether rotational values are in degrees (yes) or radians (no).

endheader
time	pelvis_to_ground_rx	pelvis_to_ground_ry	pelvis_to_ground_rz	pelvis_to_ground_tx	pelvis_to_ground_ty	pelvis_to_ground_tz	left_hip_abduction	left_hip_rotation	left_hip_flexion	left_knee_flexion	left_ankle_flexion	left_subtalar_angle	right_hip_abduction	right_hip_rotation	right_hip_flexion	right_knee_flexion	right_ankle_flexion	right_subtalar_angle
      2.93000000	    100.29280533	      0.70661714	     -2.34169704	      0.97256337	     -0.71377257	      0.71735881	    -18.46511522	     -4.77400226	     20.00613274	    -34.49183479	      5.66966872	    -12.49717061	     -1.66359662	    -21.78096523	     20.98435871	    -66.68745471	     -4.89704856	    -10.94952530
      2.94000000	    100.18463321	      0.52359963	     -2.28414945	      0.98119178	     -0.71365176	      0.71938156	    -18.26813373	     -5.02729957	     18.70930185	    -33.53643651	      5.66471927	    -12.47391038	     -1.13603410	    -21.01515261	     22.73732990	    -66.91073348	     -4.39901663	    -11.13418716
      2.95000000	    100.04104852	      0.37869320	     -2.17133946	      0.98971237	     -0.71364458	      0.72129066	    -18.04168373	     -5.42814268	     17.36592230	    -32.62364990	      5.65917429	    -12.47917459	     -0.67641595	    -20.04313572	     24.35127269	    -66.90170564	     -4.02530042	    -11.27085098
      2.96000000	     99.77958711	      0.32311979	     -2.05185152	      0.99812904	     -0.71385504	      0.72308306	    -17.69874377	     -5.89566447	     16.07807908	    -31.84372780	      5.57497776	    -12.65242247	     -0.18105849	    -18.90446618	     25.83864643	    -66.62731713	     -3.41361450	    -11.50325726
      2.97000000	     99.56266103	      0.32523653	     -1.86114533	      1.00646303	     -0.71413249	      0.72468241	    -17.42672259	     -6.40927170	     14.72957889	    -31.09821966	      5.55678610	    -12.67780697	      0.11829603	    -17.67607263	     27.16402209	    -66.17271491	     -3.20929666	    -11.58508045
      2.98000000	     99.28597398	      0.44971550	     -1.68947398	      1.01470236	     -0.71460285	      0.72611069	    -17.09846024	     -6.95613415	     13.46141648	    -30.48165663	      5.51955701	    -12.73362416	      0.37727895	    -16.41787288	     28.39327315	    -65.49141317	     -2.95794485	    -11.72860299
      2.99000000	     99.01657948	      0.66428733	     -1.51100249	      1.02284346	     -0.71519488	      0.72730552	    -16.78838796	     -7.43129618	     12.26006261	    -29.98669580	      5.29261085	    -13.10940275	      0.50382659	    -15.13406600	     29.51795421	    -64.62525026	     -2.52570453	    -12.12470804
      3.00000000	     98.76556259	      1.00929270	     -1.31147395	      1.03092710	     -0.71590645	      0.72828747	    -16.50382328	     -7.87488424	     11.07520221	    -29.56472923	      5.27045027	    -13.08051686	      0.48637786	    -13.95067588	     30.52010596	    -63.57105028	     -2.51931769	    -12.13861249
      3.01000000	     98.53951183	      1.44671121	     -1.13211201	      1.03893529	     -0.71670759	      0.72904566	    -16.24190762	     -8.23099370	      9.97811851	    -29.24530183	      5.23720198	    -13.03453340	      0.33000495	    -12.82540863	     31.44297538	    -62.32130364	     -2.51542890	    -12.18124481
      3.02000000	     98.35145047	      1.99172742	     -0.96865016	      1.04690913	     -0.71760658	      0.72956928	    -16.00602667	     -8.49898267	      8.94389275	    -28.99043865	      5.21907828	    -12.95188085	      0.03314347	    -11.82602430	     32.28315274	    -60.89061055	     -2.54864688	    -12.18384949
      3.03000000	     98.20272908	      2.62458416	     -0.81934713	      1.05485169	     -0.71857461	      0.72987190	    -15.79784748	     -8.71299736	      7.96387131	    -28.79541368	      5.20649230	    -12.81172455	     -0.39759636	    -10.95346362	     33.02876966	    -59.26346407	     -2.66540396	    -12.13310428
      3.04000000	     98.09105658	      3.32929069	     -0.68368754	      1.06278207	     -0.71960631	      0.72995226	    -15.61324121	     -8.87493314	      7.04208353	    -28.67301451	      5.21941857	    -12.62711491	     -0.94549620	    -10.19310210	     33.66880818	    -57.44035563	     -2.85749534	    -11.99884070
      3.05000000	     98.01864902	      4.05766730	     -0.58621689	      1.07074344	     -0.72066867	      0.72983494	    -15.44065726	     -8.88254179	      6.21054252	    -28.60690011	      5.37781149	    -12.04625831	     -1.58876025	     -9.55000957	     34.22633942	    -55.41825088	     -3.48942492	    -11.54414212
      3.06000000	     97.96139488	      4.84301431	     -0.48525700	      1.07875654	     -0.72178832	      0.72952331	    -15.27734990	     -8.95415162	      5.39205652	    -28.60608946	      5.73107232	    -11.40290787	     -2.28918420	     -9.03823614	     34.63185006	    -53.20124061	     -3.92572047	    -11.05960302
      3.07000000	     97.94456398	      5.62223411	     -0.41074473	      1.08687608	     -0.72292123	      0.72904718	    -15.14097034	     -9.03065269	      4.58904292	    -28.59284646	      6.03077927	    -10.89578426	     -3.04662076	     -8.62634825	     34.91967923	    -50.81273037	     -4.33725944	    -10.50483388
      3.08000000	     97.95706287	      6.40559345	     -0.30596698	      1.09510878	     -0.72407581	      0.72839635	    -15.05513741	     -9.26299082	      3.73024654	    -28.60655897	      6.17562014	    -10.67485455	     -3.84043237	     -8.29470545	     35.01870925	    -48.28367066	     -4.64758037	    -10.11991465
      3.09000000	     97.95312468	      7.13341661	     -0.26589931	      1.10349458	     -0.72527251	      0.72761675	    -14.90857322	     -9.32418707	      3.00906074	    -28.71632611	      6.59507780	    -10.15556303	     -4.57328626	     -8.00795458	     35.03834953	    -45.63331201	     -5.50069205	     -9.11318267
      3.10000000	     98.00633296	      7.82696170	     -0.12923658	      1.11210966	     -0.72645843	      0.72669168	    -14.87590920	     -9.62951459	      2.07799019	    -28.73898979	      6.77017610	     -9.95024802	     -5.33712350	     -7.77724032	     34.81250422	    -42.96258565	     -5.87326788	     -8.67309231
      3.11000000	     98.00968831	      8.46986920	     -0.05849722	      1.12092481	     -0.72771768	      0.72567196	    -14.74905592	     -9.80825744	      1.30649875	    -28.91346622	      7.19880578	     -9.57060211	     -5.95620098	     -7.60488060	     34.52940751	    -40.28763629	     -6.87617573	     -7.65247293
      3.12000000	     98.03637829	      9.04697704	      0.07296823	      1.13001319	     -0.72898225	      0.72454983	    -14.68004260	    -10.09520266	      0.41638944	    -29.06426182	      7.54684940	     -9.23503282	     -6.52447232	     -7.45375771	     34.07617727	    -37.72830194	     -7.57205228	     -6.92600551
      3.13000000	     98.06645248	      9.53096946	      0.17520677	      1.13933852	     -0.73028317	      0.72337266	    -14.61197069	    -10.37925986	     -0.43650209	    -29.25640767	      7.88242869	     -8.93222926	     -7.00561264	     -7.25542640	     33.56422285	    -35.33475517	     -8.30501621	     -6.24994044
      3.14000000	     98.08263559	      9.95661493	      0.33572658	      1.14894264	     -0.73161095	      0.72214300	    -14.55925758	    -10.71954112	     -1.36267514	    -29.48505436	      8.02295458	     -8.79895155	     -7.37009191	     -7.09422267	     32.93047763	    -33.20084974	     -8.70150173	     -5.91300491
      3.15000000	     98.03171255	     10.33861561	      0.44544898	      1.15879337	     -0.73301787	      0.72092002	    -14.40705415	    -10.99795775	     -2.15549170	    -29.85832197	      8.26644172	     -8.60904555	     -7.52239184	     -7.03965131	     32.31097899	    -31.35502083	     -9.45671674	     -5.40215254
      3.16000000	     97.97014477	     10.60433478	      0.50090725	      1.16884841	     -0.73445191	      0.71973755	    -14.23849000	    -11.23240682	     -2.85682577	    -30.30035023	      8.36656756	     -8.47989163	     -7.59581964	     -6.82107489	     31.69593504	    -29.82268424	     -9.77007647	     -5.18769093
      3.17000000	     97.83808143	     10.82546920	      0.52144544	      1.17912161	     -0.73594837	      0.71860505	    -13.97071592	    -11.38666404	     -3.42436466	    -30.90493856	      8.43199943	     -8.34336290	     -7.47790936	     -6.67308535	     31.09655288	    -28.63612661	    -10.03646141	     -5.04751058
      3.18000000	     97.65448979	     11.00579390	      0.40133962	      1.18956757	     -0.73750971	      0.71760258	    -13.63102366	    -11.57750376	     -3.77537524	    -31.64018421	      8.41820068	     -8.27751300	     -7.21361068	     -6.52812533	     30.59625119	    -27.75230950	    -10.06830324	     -5.02708022
      3.19000000	     97.39770357	     11.08039179	      0.36962142	      1.20015655	     -0.73908383	      0.71660469	    -13.16342889	    -11.39182636	     -4.01755275	    -32.63681726	      8.33507102	     -8.13970336	     -6.84229448	     -6.22390610	     29.98830274	    -27.19320517	    -10.00136321	     -5.12224236
      3.20000000	     97.06844955	     11.11061582	      0.24060110	      1.21086868	     -0.74071630	      0.71574276	    -12.58289298	    -11.10630366	     -4.02113299	    -33.82948110	      8.16572962	     -7.97823856	     -6.34604199	     -5.85553730	     29.42668480	    -26.85800444	     -9.72000931	     -5.35417889
      3.21000000	     96.66654818	     11.10542513	      0.07093234	      1.22168859	     -0.74239803	      0.71498949	    -11.90239537	    -10.68641914	     -3.82906124	    -35.24309748	      7.75294803	     -7.45748725	     -5.75216676	     -5.38943711	     28.85638067	    -26.71905913	     -8.87539853	     -6.06388165
      3.22000000	     96.17604853	     11.02767607	     -0.11882395	      1.23255296	     -0.74411110	      0.71433341	    -11.08076842	     -9.98370433	     -3.40088447	    -36.92898268	      7.34383046	     -7.15084740	     -5.06357211	     -4.74646419	     28.26096385	    -26.70409619	     -8.11508044	     -6.59956736
      3.23000000	     95.59647897	     10.89136803	     -0.31757761	      1.24343683	     -0.74585449	      0.71378689	    -10.14360153	     -9.05390642	     -2.76668779	    -38.86615909	      6.78154320	     -6.91556088	     -4.28564603	     -3.93930274	     27.63154006	    -26.76234829	     -7.23502991	     -7.12726305
      3.24000000	     94.93745228	     10.72036320	     -0.47975716	      1.25430445	     -0.74762180	      0.71330630	     -9.10689683	     -7.87816373	     -1.95958880	    -41.07345663	      6.01014163	     -6.68109756	     -3.40552658	     -3.10253811	     26.96048526	    -26.89883904	     -6.19678359	     -7.70968596
      3.25000000	     94.18398036	     10.49347902	     -0.65124835	      1.26510334	     -0.74941758	      0.71295180	     -7.97702131	     -6.51291267	     -0.95258302	    -43.50998539	      5.13744682	     -6.53039500	     -2.43005852	     -2.13214794	     26.27632135	    -27.02044870	     -5.20486548	     -8.22252389
      3.26000000	     93.39491020	     10.20485253	     -0.79887695	      1.27577921	     -0.75118989	      0.71265658	     -6.82214145	     -4.90928220	      0.21843568	    -46.16891988	      4.03745059	     -6.42176044	     -1.39279771	     -1.18919994	     25.60335979	    -27.18738508	     -4.14925432	     -8.75159714
